999
dxflib 3.17.0.0
  0
SECTION
  2
HEADER
  9
$ACADVER
  1
AC1015
  9
$HANDSEED
  5
FFFF
  9
$DIMADEC
 70
0
  9
$DIMASZ
 40
0.18
  9
$DIMAUNIT
 70
0
  9
$DIMAZIN
 70
0
  9
$DIMDEC
 70
4
  9
$DIMDLI
 40
0.36
  9
$DIMDSEP
 70
46
  9
$DIMEXE
 40
0.18
  9
$DIMEXO
 40
0.0625
  9
$DIMGAP
 40
0.09
  9
$DIMLUNIT
 70
2
  9
$DIMSCALE
 40
1.0
  9
$DIMTSZ
 40
0.0
  9
$DIMTXT
 40
0.18
  9
$DIMZIN
 70
0
  9
$DWGCODEPAGE
  3
ANSI_1252
  9
$INSUNITS
 70
4
  9
$LTSCALE
 40
1.0
  9
$MAXACTVP
 70
64
  9
$MEASUREMENT
 70
1
  9
$MIRRTEXT
 70
0
  9
$PDMODE
 70
0
  9
$PDSIZE
 40
0.0
  0
ENDSEC
  0
SECTION
  2
TABLES
  0
TABLE
  2
VPORT
  5
8
100
AcDbSymbolTable
 70
1
  0
VPORT
  5
30
100
AcDbSymbolTableRecord
100
AcDbViewportTableRecord
  2
*Active
 70
0
 10
0.0
 20
0.0
 11
1.0
 21
1.0
 12
286.3055555555554861
 22
148.5
 13
0.0
 23
0.0
 14
10.0
 24
10.0
 15
10.0
 25
10.0
 16
0.0
 26
0.0
 36
1.0
 17
0.0
 27
0.0
 37
0.0
 40
297.0
 41
1.92798353909465
 42
50.0
 43
0.0
 44
0.0
 50
0.0
 51
0.0
 71
0
 72
100
 73
1
 74
3
 75
1
 76
1
 77
0
 78
0
281
0
 65
1
110
0.0
120
0.0
130
0.0
111
1.0
121
0.0
131
0.0
112
0.0
122
1.0
132
0.0
 79
0
146
0.0
  0
ENDTAB
  0
TABLE
  2
LTYPE
  5
5
100
AcDbSymbolTable
 70
41
  0
LTYPE
  5
16
100
AcDbSymbolTableRecord
100
AcDbLinetypeTableRecord
  2
Continuous
 70
0
  3
Solid line
 72
65
 73
0
 40
0.0
  0
LTYPE
  5
31
100
AcDbSymbolTableRecord
100
AcDbLinetypeTableRecord
  2
ACAD_ISO12W100
 70
0
  3
ISO dash double-dot __ . . __ . . __ . . __ . . 
 72
65
 73
6
 40
21.0
 49
12.0
 74
0
 49
-2.9500000000000002
 74
0
 49
0.1
 74
0
 49
-2.9000000000000004
 74
0
 49
0.1
 74
0
 49
-2.9500000000000002
 74
0
  0
LTYPE
  5
32
100
AcDbSymbolTableRecord
100
AcDbLinetypeTableRecord
  2
PHANTOM2
 70
0
  3
Phantom (.5x) ___ _ _ ___ _ _ ___ _ _ ___ _ _
 72
65
 73
6
 40
31.7500000000000036
 49
15.875
 74
0
 49
-3.1749999999999998
 74
0
 49
3.1749999999999998
 74
0
 49
-3.1749999999999998
 74
0
 49
3.1749999999999998
 74
0
 49
-3.1749999999999998
 74
0
  0
LTYPE
  5
33
100
AcDbSymbolTableRecord
100
AcDbLinetypeTableRecord
  2
ACAD_ISO08W100
 70
0
  3
ISO long-dash short-dash ____ __ ____ __ ____ _
 72
65
 73
4
 40
36.0
 49
24.0
 74
0
 49
-3.0
 74
0
 49
6.0
 74
0
 49
-3.0
 74
0
  0
LTYPE
  5
34
100
AcDbSymbolTableRecord
100
AcDbLinetypeTableRecord
  2
DOT2
 70
0
  3
Dot (.5x) ........................................
 72
65
 73
2
 40
3.1749999999999998
 49
0.1
 74
0
 49
-3.0749999999999997
 74
0
  0
LTYPE
  5
35
100
AcDbSymbolTableRecord
100
AcDbLinetypeTableRecord
  2
PHANTOMX2
 70
0
  3
Phantom (2x) ____________    ____    ____   _
 72
65
 73
6
 40
127.0000000000000142
 49
63.5
 74
0
 49
-12.6999999999999993
 74
0
 49
12.6999999999999993
 74
0
 49
-12.6999999999999993
 74
0
 49
12.6999999999999993
 74
0
 49
-12.6999999999999993
 74
0
  0
LTYPE
  5
36
100
AcDbSymbolTableRecord
100
AcDbLinetypeTableRecord
  2
ACAD_ISO06W100
 70
0
  3
ISO long-dash triple-dot ____ ... ____ ... ____
 72
65
 73
8
 40
36.0000000000000071
 49
24.0
 74
0
 49
-2.9500000000000002
 74
0
 49
0.1
 74
0
 49
-2.9000000000000004
 74
0
 49
0.1
 74
0
 49
-2.9000000000000004
 74
0
 49
0.1
 74
0
 49
-2.9500000000000002
 74
0
  0
LTYPE
  5
37
100
AcDbSymbolTableRecord
100
AcDbLinetypeTableRecord
  2
BORDER2
 70
0
  3
Border (.5x) __.__.__.__.__.__.__.__.__.__.__.
 72
65
 73
6
 40
22.2250000000000014
 49
6.3499999999999996
 74
0
 49
-3.1749999999999998
 74
0
 49
6.3499999999999996
 74
0
 49
-3.125
 74
0
 49
0.1
 74
0
 49
-3.125
 74
0
  0
LTYPE
  5
38
100
AcDbSymbolTableRecord
100
AcDbLinetypeTableRecord
  2
DIVIDE
 70
0
  3
Divide ____ . . ____ . . ____ . . ____ . . ____
 72
65
 73
6
 40
31.7500000000000036
 49
12.6999999999999993
 74
0
 49
-6.2999999999999998
 74
0
 49
0.1
 74
0
 49
-6.25
 74
0
 49
0.1
 74
0
 49
-6.2999999999999998
 74
0
  0
LTYPE
  5
39
100
AcDbSymbolTableRecord
100
AcDbLinetypeTableRecord
  2
ACAD_ISO03W100
 70
0
  3
ISO dash space __    __    __    __    __    __
 72
65
 73
2
 40
30.0
 49
12.0
 74
0
 49
-18.0
 74
0
  0
LTYPE
  5
3A
100
AcDbSymbolTableRecord
100
AcDbLinetypeTableRecord
  2
BORDERX2
 70
0
  3
Border (2x) ____  ____  .  ____  ____  .  ___
 72
65
 73
6
 40
88.8999999999999773
 49
25.3999999999999986
 74
0
 49
-12.6999999999999993
 74
0
 49
25.3999999999999986
 74
0
 49
-12.6499999999999986
 74
0
 49
0.1
 74
0
 49
-12.6499999999999986
 74
0
  0
LTYPE
  5
14
100
AcDbSymbolTableRecord
100
AcDbLinetypeTableRecord
  2
BYBLOCK
 70
0
  3

 72
65
 73
0
 40
0.0
  0
LTYPE
  5
3B
100
AcDbSymbolTableRecord
100
AcDbLinetypeTableRecord
  2
DASHDOT2
 70
0
  3
Dash dot (.5x) _._._._._._._._._._._._._._._.
 72
65
 73
4
 40
12.6999999999999993
 49
6.3499999999999996
 74
0
 49
-3.125
 74
0
 49
0.1
 74
0
 49
-3.125
 74
0
  0
LTYPE
  5
3C
100
AcDbSymbolTableRecord
100
AcDbLinetypeTableRecord
  2
DIVIDE2
 70
0
  3
Divide (.5x) __..__..__..__..__..__..__..__.._
 72
65
 73
6
 40
15.8749999999999982
 49
6.3499999999999996
 74
0
 49
-3.125
 74
0
 49
0.1
 74
0
 49
-3.0750000000000002
 74
0
 49
0.1
 74
0
 49
-3.125
 74
0
  0
LTYPE
  5
3D
100
AcDbSymbolTableRecord
100
AcDbLinetypeTableRecord
  2
ACAD_ISO10W100
 70
0
  3
ISO dash dot __ . __ . __ . __ . __ . __ . __ . 
 72
65
 73
4
 40
18.0
 49
12.0
 74
0
 49
-2.9500000000000002
 74
0
 49
0.1
 74
0
 49
-2.9500000000000002
 74
0
  0
LTYPE
  5
3E
100
AcDbSymbolTableRecord
100
AcDbLinetypeTableRecord
  2
CENTER
 70
0
  3
Center ____ _ ____ _ ____ _ ____ _ ____ _ ____
 72
65
 73
4
 40
50.8000000000000043
 49
31.75
 74
0
 49
-6.3499999999999996
 74
0
 49
6.3499999999999996
 74
0
 49
-6.3499999999999996
 74
0
  0
LTYPE
  5
3F
100
AcDbSymbolTableRecord
100
AcDbLinetypeTableRecord
  2
DIVIDEX2
 70
0
  3
Divide (2x) ________  .  .  ________  .  .  _
 72
65
 73
6
 40
63.5
 49
25.3999999999999986
 74
0
 49
-12.6499999999999986
 74
0
 49
0.1
 74
0
 49
-12.5999999999999979
 74
0
 49
0.1
 74
0
 49
-12.6499999999999986
 74
0
  0
LTYPE
  5
40
100
AcDbSymbolTableRecord
100
AcDbLinetypeTableRecord
  2
ACAD_ISO05W100
 70
0
  3
ISO long-dash double-dot ____ .. ____ .. ____ . 
 72
65
 73
6
 40
33.0000000000000071
 49
24.0
 74
0
 49
-2.9500000000000002
 74
0
 49
0.1
 74
0
 49
-2.9000000000000004
 74
0
 49
0.1
 74
0
 49
-2.9500000000000002
 74
0
  0
LTYPE
  5
41
100
AcDbSymbolTableRecord
100
AcDbLinetypeTableRecord
  2
CENTERX2
 70
0
  3
Center (2x) ________  __  ________  __  _____
 72
65
 73
4
 40
101.6000000000000085
 49
63.5
 74
0
 49
-12.6999999999999993
 74
0
 49
12.6999999999999993
 74
0
 49
-12.6999999999999993
 74
0
  0
LTYPE
  5
42
100
AcDbSymbolTableRecord
100
AcDbLinetypeTableRecord
  2
ACAD_ISO14W100
 70
0
  3
ISO dash triple-dot __ . . . __ . . . __ . . . _
 72
65
 73
8
 40
24.0000000000000036
 49
12.0
 74
0
 49
-2.9500000000000002
 74
0
 49
0.1
 74
0
 49
-2.9000000000000004
 74
0
 49
0.1
 74
0
 49
-2.9000000000000004
 74
0
 49
0.1
 74
0
 49
-2.9500000000000002
 74
0
  0
LTYPE
  5
43
100
AcDbSymbolTableRecord
100
AcDbLinetypeTableRecord
  2
DOT
 70
0
  3
Dot . . . . . . . . . . . . . . . . . . . . . . . .
 72
65
 73
2
 40
6.3499999999999996
 49
0.1
 74
0
 49
-6.25
 74
0
  0
LTYPE
  5
44
100
AcDbSymbolTableRecord
100
AcDbLinetypeTableRecord
  2
BORDER
 70
0
  3
Border __ __ . __ __ . __ __ . __ __ . __ __ .
 72
65
 73
6
 40
44.4499999999999957
 49
12.6999999999999993
 74
0
 49
-6.3499999999999996
 74
0
 49
12.6999999999999993
 74
0
 49
-6.2999999999999998
 74
0
 49
0.1
 74
0
 49
-6.2999999999999998
 74
0
  0
LTYPE
  5
45
100
AcDbSymbolTableRecord
100
AcDbLinetypeTableRecord
  2
CENTER2
 70
0
  3
Center (.5x) ___ _ ___ _ ___ _ ___ _ ___ _ ___
 72
65
 73
4
 40
28.5750000000000028
 49
19.0500000000000007
 74
0
 49
-3.1749999999999998
 74
0
 49
3.1749999999999998
 74
0
 49
-3.1749999999999998
 74
0
  0
LTYPE
  5
46
100
AcDbSymbolTableRecord
100
AcDbLinetypeTableRecord
  2
DOTX2
 70
0
  3
Dot (2x) .  .  .  .  .  .  .  .  .  .  .  .  .  .
 72
65
 73
2
 40
12.6999999999999993
 49
0.1
 74
0
 49
-12.5999999999999996
 74
0
  0
LTYPE
  5
47
100
AcDbSymbolTableRecord
100
AcDbLinetypeTableRecord
  2
ACAD_ISO02W100
 70
0
  3
ISO dash __ __ __ __ __ __ __ __ __ __ __ __ __
 72
65
 73
2
 40
15.0
 49
12.0
 74
0
 49
-3.0
 74
0
  0
LTYPE
  5
48
100
AcDbSymbolTableRecord
100
AcDbLinetypeTableRecord
  2
HIDDENX2
 70
0
  3
Hidden (2x) ____ ____ ____ ____ ____ ____ ____ 
 72
65
 73
2
 40
19.0499999999999972
 49
12.6999999999999993
 74
0
 49
-6.3499999999999996
 74
0
  0
LTYPE
  5
15
100
AcDbSymbolTableRecord
100
AcDbLinetypeTableRecord
  2
BYLAYER
 70
0
  3

 72
65
 73
0
 40
0.0
  0
LTYPE
  5
49
100
AcDbSymbolTableRecord
100
AcDbLinetypeTableRecord
  2
DASHEDX2
 70
0
  3
Dashed (2x) ____  ____  ____  ____  ____  ___
 72
65
 73
2
 40
38.0999999999999943
 49
25.3999999999999986
 74
0
 49
-12.6999999999999993
 74
0
  0
LTYPE
  5
4A
100
AcDbSymbolTableRecord
100
AcDbLinetypeTableRecord
  2
PHANTOM
 70
0
  3
Phantom ______  __  __  ______  __  __  ______ 
 72
65
 73
6
 40
63.5000000000000071
 49
31.75
 74
0
 49
-6.3499999999999996
 74
0
 49
6.3499999999999996
 74
0
 49
-6.3499999999999996
 74
0
 49
6.3499999999999996
 74
0
 49
-6.3499999999999996
 74
0
  0
LTYPE
  5
4B
100
AcDbSymbolTableRecord
100
AcDbLinetypeTableRecord
  2
ACAD_ISO13W100
 70
0
  3
ISO double-dash double-dot __ __ . . __ __ . . _
 72
65
 73
8
 40
36.0000000000000071
 49
12.0
 74
0
 49
-3.0
 74
0
 49
12.0
 74
0
 49
-2.9500000000000002
 74
0
 49
0.1
 74
0
 49
-2.9000000000000004
 74
0
 49
0.1
 74
0
 49
-2.9500000000000002
 74
0
  0
LTYPE
  5
4C
100
AcDbSymbolTableRecord
100
AcDbLinetypeTableRecord
  2
DASHED
 70
0
  3
Dashed __ __ __ __ __ __ __ __ __ __ __ __ __ _
 72
65
 73
2
 40
19.0499999999999972
 49
12.6999999999999993
 74
0
 49
-6.3499999999999996
 74
0
  0
LTYPE
  5
4D
100
AcDbSymbolTableRecord
100
AcDbLinetypeTableRecord
  2
ACAD_ISO11W100
 70
0
  3
ISO double-dash dot __ __ . __ __ . __ __ . __ _
 72
65
 73
6
 40
33.0
 49
12.0
 74
0
 49
-3.0
 74
0
 49
12.0
 74
0
 49
-2.9500000000000002
 74
0
 49
0.1
 74
0
 49
-2.9500000000000002
 74
0
  0
LTYPE
  5
4E
100
AcDbSymbolTableRecord
100
AcDbLinetypeTableRecord
  2
DASHDOTX2
 70
0
  3
Dash dot (2x) ____  .  ____  .  ____  .  ___
 72
65
 73
4
 40
50.7999999999999972
 49
25.3999999999999986
 74
0
 49
-12.6499999999999986
 74
0
 49
0.1
 74
0
 49
-12.6499999999999986
 74
0
  0
LTYPE
  5
4F
100
AcDbSymbolTableRecord
100
AcDbLinetypeTableRecord
  2
ACAD_ISO09W100
 70
0
  3
ISO long-dash double-short-dash ____ __ __ ____
 72
65
 73
6
 40
45.0
 49
24.0
 74
0
 49
-3.0
 74
0
 49
6.0
 74
0
 49
-3.0
 74
0
 49
6.0
 74
0
 49
-3.0
 74
0
  0
LTYPE
  5
50
100
AcDbSymbolTableRecord
100
AcDbLinetypeTableRecord
  2
DASHED2
 70
0
  3
Dashed (.5x) _ _ _ _ _ _ _ _ _ _ _ _ _ _ _ _ _ 
 72
65
 73
2
 40
9.5249999999999986
 49
6.3499999999999996
 74
0
 49
-3.1749999999999998
 74
0
  0
LTYPE
  5
51
100
AcDbSymbolTableRecord
100
AcDbLinetypeTableRecord
  2
HIDDEN2
 70
0
  3
Hidden (.5x) _ _ _ _ _ _ _ _ _ _ _ _ _ _ _ _ _ 
 72
65
 73
2
 40
4.7624999999999993
 49
3.1749999999999998
 74
0
 49
-1.5874999999999999
 74
0
  0
LTYPE
  5
52
100
AcDbSymbolTableRecord
100
AcDbLinetypeTableRecord
  2
HIDDEN
 70
0
  3
Hidden __ __ __ __ __ __ __ __ __ __ __ __ __ __
 72
65
 73
2
 40
9.5249999999999986
 49
6.3499999999999996
 74
0
 49
-3.1749999999999998
 74
0
  0
LTYPE
  5
53
100
AcDbSymbolTableRecord
100
AcDbLinetypeTableRecord
  2
ACAD_ISO04W100
 70
0
  3
ISO long-dash dot ____ . ____ . ____ . ____ . _
 72
65
 73
4
 40
30.0
 49
24.0
 74
0
 49
-2.9500000000000002
 74
0
 49
0.1
 74
0
 49
-2.9500000000000002
 74
0
  0
LTYPE
  5
54
100
AcDbSymbolTableRecord
100
AcDbLinetypeTableRecord
  2
DASHDOT
 70
0
  3
Dash dot __ . __ . __ . __ . __ . __ . __ . __
 72
65
 73
4
 40
25.4000000000000021
 49
12.6999999999999993
 74
0
 49
-6.2999999999999998
 74
0
 49
0.1
 74
0
 49
-6.2999999999999998
 74
0
  0
LTYPE
  5
55
100
AcDbSymbolTableRecord
100
AcDbLinetypeTableRecord
  2
ACAD_ISO07W100
 70
0
  3
ISO dot . . . . . . . . . . . . . . . . . . . . 
 72
65
 73
2
 40
3.0
 49
0.1
 74
0
 49
-2.8999999999999999
 74
0
  0
LTYPE
  5
56
100
AcDbSymbolTableRecord
100
AcDbLinetypeTableRecord
  2
ACAD_ISO15W100
 70
0
  3
ISO double-dash triple-dot __ __ . . . __ __ . .
 72
65
 73
10
 40
39.0000000000000071
 49
12.0
 74
0
 49
-3.0
 74
0
 49
12.0
 74
0
 49
-2.9500000000000002
 74
0
 49
0.1
 74
0
 49
-2.9000000000000004
 74
0
 49
0.1
 74
0
 49
-2.9000000000000004
 74
0
 49
0.1
 74
0
 49
-2.9500000000000002
 74
0
  0
ENDTAB
  0
TABLE
  2
LAYER
  5
2
100
AcDbSymbolTable
 70
1
  0
LAYER
  5
10
100
AcDbSymbolTableRecord
100
AcDbLayerTableRecord
  2
0
 70
0
 62
7
420
16777215
  6
Continuous
370
5
390
F
  0
ENDTAB
  0
TABLE
  2
STYLE
  5
3
100
AcDbSymbolTable
 70
1
  0
STYLE
  5
57
100
AcDbSymbolTableRecord
100
AcDbTextStyleTableRecord
  2
Standard
 70
0
 40
0.0
 41
1.0
 50
0.0
 71
0
 42
2.5
  3

  4

1001
ACAD
1000
txt
1071
0
  0
ENDTAB
  0
TABLE
  2
VIEW
  5
6
100
AcDbSymbolTable
 70
0
  0
ENDTAB
  0
TABLE
  2
UCS
  5
7
100
AcDbSymbolTable
 70
0
  0
ENDTAB
  0
TABLE
  2
APPID
  5
9
100
AcDbSymbolTable
 70
1
  0
APPID
  5
12
100
AcDbSymbolTableRecord
100
AcDbRegAppTableRecord
  2
ACAD
 70
0
  0
APPID
  5
58
100
AcDbSymbolTableRecord
100
AcDbRegAppTableRecord
  2
QCAD
 70
0
  0
ENDTAB
  0
TABLE
  2
DIMSTYLE
  5
A
100
AcDbSymbolTable
 70
1
100
AcDbDimStyleTable
 71
0
  0
DIMSTYLE
105
27
100
AcDbSymbolTableRecord
100
AcDbDimStyleTableRecord
  2
Standard
 41
0.18
 42
0.0625
 43
3.75
 44
0.18
 70
0
 73
0
 74
0
 77
1
 78
8
140
0.18
141
2.5
143
0.03937007874016
147
0.09
171
3
172
1
271
2
272
2
274
3
278
44
283
0
284
8
340
57
  0
ENDTAB
  0
TABLE
  2
BLOCK_RECORD
  5
1
100
AcDbSymbolTable
 70
1
  0
BLOCK_RECORD
  5
1F
100
AcDbSymbolTableRecord
100
AcDbBlockTableRecord
  2
*Model_Space
340
22
  0
BLOCK_RECORD
  5
1B
100
AcDbSymbolTableRecord
100
AcDbBlockTableRecord
  2
*Paper_Space
340
1E
  0
BLOCK_RECORD
  5
23
100
AcDbSymbolTableRecord
100
AcDbBlockTableRecord
  2
*Paper_Space0
340
26
  0
ENDTAB
  0
ENDSEC
  0
SECTION
  2
BLOCKS
  0
BLOCK
  5
20
100
AcDbEntity
  8
0
100
AcDbBlockBegin
  2
*Model_Space
 70
0
 10
0.0
 20
0.0
 30
0.0
  3
*Model_Space
  1

  0
ENDBLK
  5
21
100
AcDbEntity
  8
0
100
AcDbBlockEnd
  0
BLOCK
  5
1C
100
AcDbEntity
 67
1
  8
0
100
AcDbBlockBegin
  2
*Paper_Space
 70
0
 10
0.0
 20
0.0
 30
0.0
  3
*Paper_Space
  1

  0
ENDBLK
  5
1D
100
AcDbEntity
 67
1
  8
0
100
AcDbBlockEnd
  0
BLOCK
  5
24
100
AcDbEntity
  8
0
100
AcDbBlockBegin
  2
*Paper_Space0
 70
0
 10
0.0
 20
0.0
 30
0.0
  3
*Paper_Space0
  1

  0
ENDBLK
  5
25
100
AcDbEntity
  8
0
100
AcDbBlockEnd
  0
ENDSEC
  0
SECTION
  2
ENTITIES
  0
ARC
  5
59
100
AcDbEntity
  8
0
 62
256
370
-1
 48
1.0
  6
BYLAYER
100
AcDbCircle
 10
-7.0000000000000098
 20
43.8500000000000227
 30
0.0
 40
1.2000000000000002
100
AcDbArc
 50
0.0
 51
180.0
  0
ARC
  5
5A
100
AcDbEntity
  8
0
 62
256
370
-1
 48
1.0
  6
BYLAYER
100
AcDbCircle
 10
-7.0000000000000098
 20
43.8500000000000227
 30
0.0
 40
1.2000000000000002
100
AcDbArc
 50
180.0
 51
0.0
  0
ARC
  5
5B
100
AcDbEntity
  8
0
 62
256
370
-1
 48
1.0
  6
BYLAYER
100
AcDbCircle
 10
-57.3761427374824393
 20
1.6306156756178232
 30
0.0
 40
1.2000000000000028
100
AcDbArc
 50
0.0
 51
180.0
  0
ARC
  5
5C
100
AcDbEntity
  8
0
 62
256
370
-1
 48
1.0
  6
BYLAYER
100
AcDbCircle
 10
-57.3761427374824393
 20
1.6306156756178232
 30
0.0
 40
1.2000000000000028
100
AcDbArc
 50
180.0
 51
360.0
  0
ARC
  5
5D
100
AcDbEntity
  8
0
 62
256
370
-1
 48
1.0
  6
BYLAYER
100
AcDbCircle
 10
-83.6365262381543317
 20
-11.7231747046860697
 30
0.0
 40
1.2000000000000028
100
AcDbArc
 50
0.0
 51
180.0
  0
ARC
  5
5E
100
AcDbEntity
  8
0
 62
256
370
-1
 48
1.0
  6
BYLAYER
100
AcDbCircle
 10
-83.6365262381543317
 20
-11.7231747046860697
 30
0.0
 40
1.2000000000000028
100
AcDbArc
 50
180.0
 51
0.0
  0
ARC
  5
5F
100
AcDbEntity
  8
0
 62
256
370
-1
 48
1.0
  6
BYLAYER
100
AcDbCircle
 10
-66.6750000000000682
 20
60.125
 30
0.0
 40
1.2000000000000028
100
AcDbArc
 50
0.0
 51
180.0
  0
ARC
  5
60
100
AcDbEntity
  8
0
 62
256
370
-1
 48
1.0
  6
BYLAYER
100
AcDbCircle
 10
-66.6750000000000682
 20
60.125
 30
0.0
 40
1.2000000000000028
100
AcDbArc
 50
180.0
 51
0.0
  0
ARC
  5
61
100
AcDbEntity
  8
0
 62
256
370
-1
 48
1.0
  6
BYLAYER
100
AcDbCircle
 10
-13.163656554982154
 20
0.2499999999999133
 30
0.0
 40
1.1999999999999993
100
AcDbArc
 50
360.0
 51
180.0
  0
ARC
  5
62
100
AcDbEntity
  8
0
 62
256
370
-1
 48
1.0
  6
BYLAYER
100
AcDbCircle
 10
-13.163656554982154
 20
0.2499999999999131
 30
0.0
 40
1.1999999999999993
100
AcDbArc
 50
180.0
 51
360.0
  0
LINE
  5
63
100
AcDbEntity
  8
0
 62
256
370
-1
 48
1.0
  6
BYLAYER
100
AcDbLine
 10
-16.8108913328808924
 20
-22.3265254889758147
 30
0.0
 11
-45.3858913328809024
 21
-22.3265254889757578
 31
0.0
  0
ARC
  5
64
100
AcDbEntity
  8
0
 62
256
370
-1
 48
1.0
  6
BYLAYER
100
AcDbCircle
 10
-45.3519922955930213
 20
-93.6760834126826865
 30
0.0
 40
71.3495579237068824
100
AcDbArc
 50
89.9999999999999574
 51
128.9129084432700836
  0
ARC
  5
65
100
AcDbEntity
  8
0
 62
256
370
-1
 48
1.0
  6
BYLAYER
100
AcDbCircle
 10
-33.465163188879643
 20
-105.8518604397477247
 30
0.0
 40
111.4495579237070331
100
AcDbArc
 50
118.4010104741723808
 51
129.1849847511041105
  0
LINE
  5
66
100
AcDbEntity
  8
0
 62
256
370
-1
 48
1.0
  6
BYLAYER
100
AcDbLine
 10
-86.4749999999999091
 20
14.8312586268235158
 30
0.0
 11
-86.4750000000000796
 21
61.426218290421879
 31
0.0
  0
ARC
  5
67
100
AcDbEntity
  8
0
 62
256
370
-1
 48
1.0
  6
BYLAYER
100
AcDbCircle
 10
-85.4750000000000085
 20
61.4262182904218434
 30
0.0
 40
1.0000000000000726
100
AcDbArc
 50
104.8806852846383606
 51
180.0
  0
ARC
  5
68
100
AcDbEntity
  8
0
 62
256
370
-1
 48
1.0
  6
BYLAYER
100
AcDbCircle
 10
-45.3858913328809024
 20
-89.4443857434924183
 30
0.0
 40
157.1059761677375377
100
AcDbArc
 50
68.076682440301056
 51
104.8806852846437749
  0
LINE
  5
69
100
AcDbEntity
  8
0
 62
256
370
-1
 48
1.0
  6
BYLAYER
100
AcDbLine
 10
-45.1000000000000156
 20
23.9999999999999929
 30
0.0
 11
-45.1000000000000156
 21
11.9999999999999964
 31
0.0
  0
ARC
  5
6A
100
AcDbEntity
  8
0
 62
256
370
-1
 48
1.0
  6
BYLAYER
100
AcDbCircle
 10
-44.1000000000000085
 20
12.0
 30
0.0
 40
1.0000000000000036
100
AcDbArc
 50
180.0
 51
270.0
  0
LINE
  5
6B
100
AcDbEntity
  8
0
 62
256
370
-1
 48
1.0
  6
BYLAYER
100
AcDbLine
 10
-44.1000000000000085
 20
10.9999999999999964
 30
0.0
 11
-32.1000000000000085
 21
10.9999999999999947
 31
0.0
  0
ARC
  5
6C
100
AcDbEntity
  8
0
 62
256
370
-1
 48
1.0
  6
BYLAYER
100
AcDbCircle
 10
-32.1000000000000085
 20
11.9999999999999929
 30
0.0
 40
0.9999999999999982
100
AcDbArc
 50
270.0
 51
0.0
  0
LINE
  5
6D
100
AcDbEntity
  8
0
 62
256
370
-1
 48
1.0
  6
BYLAYER
100
AcDbLine
 10
-31.1000000000000121
 20
11.9999999999999947
 30
0.0
 11
-31.1000000000000085
 21
23.9999999999999929
 31
0.0
  0
ARC
  5
6E
100
AcDbEntity
  8
0
 62
256
370
-1
 48
1.0
  6
BYLAYER
100
AcDbCircle
 10
-32.1000000000000085
 20
23.9999999999999929
 30
0.0
 40
1.0000000000000018
100
AcDbArc
 50
0.0
 51
90.0
  0
LINE
  5
6F
100
AcDbEntity
  8
0
 62
256
370
-1
 48
1.0
  6
BYLAYER
100
AcDbLine
 10
-32.1000000000000085
 20
24.9999999999999964
 30
0.0
 11
-44.1000000000000227
 21
24.9999999999999964
 31
0.0
  0
ARC
  5
70
100
AcDbEntity
  8
0
 62
256
370
-1
 48
1.0
  6
BYLAYER
100
AcDbCircle
 10
-44.1000000000000227
 20
23.9999999999999964
 30
0.0
 40
0.9999999999999982
100
AcDbArc
 50
90.0
 51
180.0
  0
LINE
  5
71
100
AcDbEntity
  8
0
 62
256
370
-1
 48
1.0
  6
BYLAYER
100
AcDbLine
 10
-31.1000000000000121
 20
50.0999999999999943
 30
0.0
 11
-31.1000000000000121
 21
62.1000000000000085
 31
0.0
  0
ARC
  5
72
100
AcDbEntity
  8
0
 62
256
370
-1
 48
1.0
  6
BYLAYER
100
AcDbCircle
 10
-32.1000000000000085
 20
62.1000000000000085
 30
0.0
 40
0.9999999999999982
100
AcDbArc
 50
0.0
 51
90.0
  0
LINE
  5
73
100
AcDbEntity
  8
0
 62
256
370
-1
 48
1.0
  6
BYLAYER
100
AcDbLine
 10
-32.1000000000000085
 20
63.1000000000000085
 30
0.0
 11
-44.1000000000000227
 21
63.1000000000000085
 31
0.0
  0
ARC
  5
74
100
AcDbEntity
  8
0
 62
256
370
-1
 48
1.0
  6
BYLAYER
100
AcDbCircle
 10
-44.1000000000000227
 20
62.1000000000000085
 30
0.0
 40
0.9999999999999966
100
AcDbArc
 50
90.0
 51
180.0
  0
LINE
  5
75
100
AcDbEntity
  8
0
 62
256
370
-1
 48
1.0
  6
BYLAYER
100
AcDbLine
 10
-45.1000000000000156
 20
62.1000000000000085
 30
0.0
 11
-45.1000000000000085
 21
50.0999999999999943
 31
0.0
  0
ARC
  5
76
100
AcDbEntity
  8
0
 62
256
370
-1
 48
1.0
  6
BYLAYER
100
AcDbCircle
 10
-44.1000000000000085
 20
50.0999999999999943
 30
0.0
 40
0.9999999999999966
100
AcDbArc
 50
180.0
 51
270.0
  0
LINE
  5
77
100
AcDbEntity
  8
0
 62
256
370
-1
 48
1.0
  6
BYLAYER
100
AcDbLine
 10
-44.1000000000000085
 20
49.1000000000000014
 30
0.0
 11
-32.1000000000000085
 21
49.1000000000000014
 31
0.0
  0
ARC
  5
78
100
AcDbEntity
  8
0
 62
256
370
-1
 48
1.0
  6
BYLAYER
100
AcDbCircle
 10
-32.1000000000000085
 20
50.0999999999999943
 30
0.0
 40
0.9999999999999948
100
AcDbArc
 50
270.0
 51
0.0
  0
LINE
  5
79
100
AcDbEntity
  8
0
 62
256
370
-1
 48
1.0
  6
BYLAYER
100
AcDbLine
 10
-83.2000000000000028
 20
15.0000000000000195
 30
0.0
 11
-83.2000000000000028
 21
2.9999999999999827
 31
0.0
  0
ARC
  5
7A
100
AcDbEntity
  8
0
 62
256
370
-1
 48
1.0
  6
BYLAYER
100
AcDbCircle
 10
-82.2000000000000028
 20
2.9999999999999831
 30
0.0
 40
0.9999999999999993
100
AcDbArc
 50
180.0
 51
270.0
  0
LINE
  5
7B
100
AcDbEntity
  8
0
 62
256
370
-1
 48
1.0
  6
BYLAYER
100
AcDbLine
 10
-82.2000000000000028
 20
1.999999999999984
 30
0.0
 11
-70.1999999999999886
 21
1.9999999999999842
 31
0.0
  0
ARC
  5
7C
100
AcDbEntity
  8
0
 62
256
370
-1
 48
1.0
  6
BYLAYER
100
AcDbCircle
 10
-70.1999999999999886
 20
2.9999999999999774
 30
0.0
 40
0.9999999999999929
100
AcDbArc
 50
270.0
 51
0.0
  0
LINE
  5
7D
100
AcDbEntity
  8
0
 62
256
370
-1
 48
1.0
  6
BYLAYER
100
AcDbLine
 10
-69.2000000000000028
 20
2.9999999999999849
 30
0.0
 11
-69.2000000000000028
 21
15.0000000000000195
 31
0.0
  0
ARC
  5
7E
100
AcDbEntity
  8
0
 62
256
370
-1
 48
1.0
  6
BYLAYER
100
AcDbCircle
 10
-70.2000000000000028
 20
15.0000000000000213
 30
0.0
 40
1.0000000000000009
100
AcDbArc
 50
360.0
 51
90.0
  0
LINE
  5
7F
100
AcDbEntity
  8
0
 62
256
370
-1
 48
1.0
  6
BYLAYER
100
AcDbLine
 10
-70.2000000000000028
 20
16.0000000000000213
 30
0.0
 11
-82.2000000000000028
 21
16.0000000000000213
 31
0.0
  0
ARC
  5
80
100
AcDbEntity
  8
0
 62
256
370
-1
 48
1.0
  6
BYLAYER
100
AcDbCircle
 10
-82.2000000000000028
 20
15.0000000000000213
 30
0.0
 40
1.0000000000000009
100
AcDbArc
 50
90.0
 51
180.0
  0
LINE
  5
81
100
AcDbEntity
  8
0
 62
256
370
-1
 48
1.0
  6
BYLAYER
100
AcDbLine
 10
-79.7000000000000028
 20
-4.0499999999999989
 30
0.0
 11
-79.7000000000000028
 21
-16.0500000000000362
 31
0.0
  0
ARC
  5
82
100
AcDbEntity
  8
0
 62
256
370
-1
 48
1.0
  6
BYLAYER
100
AcDbCircle
 10
-78.7000000000000028
 20
-16.0500000000000327
 30
0.0
 40
0.9999999999999982
100
AcDbArc
 50
180.0
 51
270.0
  0
LINE
  5
83
100
AcDbEntity
  8
0
 62
256
370
-1
 48
1.0
  6
BYLAYER
100
AcDbLine
 10
-78.7000000000000028
 20
-17.0500000000000327
 30
0.0
 11
-66.6999999999999886
 21
-17.0500000000000327
 31
0.0
  0
ARC
  5
84
100
AcDbEntity
  8
0
 62
256
370
-1
 48
1.0
  6
BYLAYER
100
AcDbCircle
 10
-66.6999999999999886
 20
-16.0500000000000398
 30
0.0
 40
0.9999999999999927
100
AcDbArc
 50
270.0
 51
0.0
  0
LINE
  5
85
100
AcDbEntity
  8
0
 62
256
370
-1
 48
1.0
  6
BYLAYER
100
AcDbLine
 10
-65.7000000000000028
 20
-16.0500000000000327
 30
0.0
 11
-65.7000000000000028
 21
-4.0499999999999989
 31
0.0
  0
ARC
  5
86
100
AcDbEntity
  8
0
 62
256
370
-1
 48
1.0
  6
BYLAYER
100
AcDbCircle
 10
-66.7000000000000028
 20
-4.049999999999998
 30
0.0
 40
1.0000000000000009
100
AcDbArc
 50
360.0
 51
90.0
  0
LINE
  5
87
100
AcDbEntity
  8
0
 62
256
370
-1
 48
1.0
  6
BYLAYER
100
AcDbLine
 10
-66.7000000000000028
 20
-3.0499999999999972
 30
0.0
 11
-78.7000000000000028
 21
-3.0499999999999972
 31
0.0
  0
ARC
  5
88
100
AcDbEntity
  8
0
 62
256
370
-1
 48
1.0
  6
BYLAYER
100
AcDbCircle
 10
-78.7000000000000028
 20
-4.049999999999998
 30
0.0
 40
1.0000000000000009
100
AcDbArc
 50
90.0
 51
180.0
  0
LINE
  5
89
100
AcDbEntity
  8
0
 62
256
370
-1
 48
1.0
  6
BYLAYER
100
AcDbLine
 10
-59.0961908613808191
 20
-13.6373536525553369
 30
0.0
 11
-48.3569785221564814
 21
-18.9917274098730573
 31
0.0
  0
ARC
  5
8A
100
AcDbEntity
  8
0
 62
256
370
-1
 48
1.0
  6
BYLAYER
100
AcDbCircle
 10
-47.9107807090466764
 20
-18.0967930482710315
 30
0.0
 40
0.9999999999999991
100
AcDbArc
 50
243.5000000000002274
 51
333.5000000000002274
  0
LINE
  5
8B
100
AcDbEntity
  8
0
 62
256
370
-1
 48
1.0
  6
BYLAYER
100
AcDbLine
 10
-47.0158463474446506
 20
-18.5429908613808365
 30
0.0
 11
-41.661472590126948
 21
-7.803778522156521
 31
0.0
  0
ARC
  5
8C
100
AcDbEntity
  8
0
 62
256
370
-1
 48
1.0
  6
BYLAYER
100
AcDbCircle
 10
-42.5564069517289667
 20
-7.3575807090467205
 30
0.0
 40
0.9999999999999934
100
AcDbArc
 50
333.5000000000002842
 51
63.5000000000004974
  0
LINE
  5
8D
100
AcDbEntity
  8
0
 62
256
370
-1
 48
1.0
  6
BYLAYER
100
AcDbLine
 10
-42.1102091386191688
 20
-6.4626463474446982
 30
0.0
 11
-52.8494214778434994
 21
-1.1082725901269814
 31
0.0
  0
ARC
  5
8E
100
AcDbEntity
  8
0
 62
256
370
-1
 48
1.0
  6
BYLAYER
100
AcDbCircle
 10
-53.2956192909533044
 20
-2.0032069517290081
 30
0.0
 40
1.0000000000000027
100
AcDbArc
 50
63.5000000000002345
 51
153.5000000000000853
  0
LINE
  5
8F
100
AcDbEntity
  8
0
 62
256
370
-1
 48
1.0
  6
BYLAYER
100
AcDbLine
 10
-54.1905536525553373
 20
-1.5570091386191969
 30
0.0
 11
-59.5449274098730399
 21
-12.2962214778434955
 31
0.0
  0
ARC
  5
90
100
AcDbEntity
  8
0
 62
256
370
-1
 48
1.0
  6
BYLAYER
100
AcDbCircle
 10
-58.649993048271007
 20
-12.7424192909533058
 30
0.0
 40
1.0000000000000062
100
AcDbArc
 50
153.5000000000001421
 51
243.4999999999999716
  0
LINE
  5
91
100
AcDbEntity
  8
0
 62
256
370
-1
 48
1.0
  6
BYLAYER
100
AcDbLine
 10
-91.1086514163552579
 20
-31.3807828266748992
 30
0.0
 11
-81.4004474838558565
 21
-24.3273597991652082
 31
0.0
  0
ARC
  5
92
100
AcDbEntity
  8
0
 62
256
370
-1
 48
1.0
  6
BYLAYER
100
AcDbCircle
 10
-81.9882327361483334
 20
-23.5183428047902652
 30
0.0
 40
0.9999999999999988
100
AcDbArc
 50
306.0000000000002842
 51
36.0000000000003268
  0
LINE
  5
93
100
AcDbEntity
  8
0
 62
256
370
-1
 48
1.0
  6
BYLAYER
100
AcDbLine
 10
-81.1792157417733904
 20
-22.9305575524977883
 30
0.0
 11
-88.2326387692830707
 21
-13.2223536199984029
 31
0.0
  0
ARC
  5
94
100
AcDbEntity
  8
0
 62
256
370
-1
 48
1.0
  6
BYLAYER
100
AcDbCircle
 10
-89.0416557636580137
 20
-13.8101388722908744
 30
0.0
 40
0.9999999999999881
100
AcDbArc
 50
36.0000000000000853
 51
125.9999999999999716
  0
LINE
  5
95
100
AcDbEntity
  8
0
 62
256
370
-1
 48
1.0
  6
BYLAYER
100
AcDbLine
 10
-89.6294410159504764
 20
-13.0011218779159403
 30
0.0
 11
-99.337644948449892
 21
-20.0545449054256402
 31
0.0
  0
ARC
  5
96
100
AcDbEntity
  8
0
 62
256
370
-1
 48
1.0
  6
BYLAYER
100
AcDbCircle
 10
-98.7498596961574151
 20
-20.8635618998005796
 30
0.0
 40
0.9999999999999962
100
AcDbArc
 50
126.0000000000004547
 51
216.0000000000003126
  0
LINE
  5
97
100
AcDbEntity
  8
0
 62
256
370
-1
 48
1.0
  6
BYLAYER
100
AcDbLine
 10
-99.5588766905323581
 20
-21.4513471520930565
 30
0.0
 11
-92.5054536630226778
 21
-31.1595510845924295
 31
0.0
  0
ARC
  5
98
100
AcDbEntity
  8
0
 62
256
370
-1
 48
1.0
  6
BYLAYER
100
AcDbCircle
 10
-91.6964366686477348
 20
-30.5717658322999526
 30
0.0
 40
0.9999999999999992
100
AcDbArc
 50
216.0000000000003126
 51
306.0000000000001705
  0
LINE
  5
99
100
AcDbEntity
  8
0
 62
256
370
-1
 48
1.0
  6
BYLAYER
100
AcDbLine
 10
-25.0499999999999154
 20
43.0999999999999091
 30
0.0
 11
-13.0499999999999172
 21
43.0999999999999091
 31
0.0
  0
ARC
  5
9A
100
AcDbEntity
  8
0
 62
256
370
-1
 48
1.0
  6
BYLAYER
100
AcDbCircle
 10
-13.0499999999999119
 20
44.0999999999999091
 30
0.0
 40
0.9999999999999982
100
AcDbArc
 50
269.9999999999996589
 51
360.0
  0
LINE
  5
9B
100
AcDbEntity
  8
0
 62
256
370
-1
 48
1.0
  6
BYLAYER
100
AcDbLine
 10
-12.0499999999999137
 20
44.0999999999999019
 30
0.0
 11
-12.0499999999999154
 21
56.0999999999999162
 31
0.0
  0
ARC
  5
9C
100
AcDbEntity
  8
0
 62
256
370
-1
 48
1.0
  6
BYLAYER
100
AcDbCircle
 10
-13.0499999999999119
 20
56.0999999999999091
 30
0.0
 40
0.9999999999999974
100
AcDbArc
 50
0.0
 51
90.0000000000002984
  0
LINE
  5
9D
100
AcDbEntity
  8
0
 62
256
370
-1
 48
1.0
  6
BYLAYER
100
AcDbLine
 10
-13.0499999999999172
 20
57.0999999999999091
 30
0.0
 11
-25.0499999999999154
 21
57.0999999999999091
 31
0.0
  0
ARC
  5
9E
100
AcDbEntity
  8
0
 62
256
370
-1
 48
1.0
  6
BYLAYER
100
AcDbCircle
 10
-25.049999999999919
 20
56.0999999999999091
 30
0.0
 40
0.9999999999999966
100
AcDbArc
 50
89.999999999999801
 51
180.0
  0
LINE
  5
9F
100
AcDbEntity
  8
0
 62
256
370
-1
 48
1.0
  6
BYLAYER
100
AcDbLine
 10
-26.0499999999999154
 20
56.0999999999999162
 30
0.0
 11
-26.0499999999999154
 21
44.0999999999999019
 31
0.0
  0
ARC
  5
A0
100
AcDbEntity
  8
0
 62
256
370
-1
 48
1.0
  6
BYLAYER
100
AcDbCircle
 10
-25.049999999999919
 20
44.0999999999999091
 30
0.0
 40
0.9999999999999966
100
AcDbArc
 50
180.0
 51
270.0000000000002274
  0
LINE
  5
A1
100
AcDbEntity
  8
0
 62
256
370
-1
 48
1.0
  6
BYLAYER
100
AcDbLine
 10
-6.185341094298737
 20
6.256895612086244
 30
0.0
 11
5.7252127253971707
 21
4.7944634912244677
 31
0.0
  0
ARC
  5
A2
100
AcDbEntity
  8
0
 62
256
370
-1
 48
1.0
  6
BYLAYER
100
AcDbCircle
 10
5.8470820688023162
 20
5.7870096428657893
 30
0.0
 40
0.9999999999999993
100
AcDbArc
 50
263.0000000000001705
 51
353.0000000000001705
  0
LINE
  5
A3
100
AcDbEntity
  8
0
 62
256
370
-1
 48
1.0
  6
BYLAYER
100
AcDbLine
 10
6.8396282204436378
 20
5.6651402994606439
 30
0.0
 11
8.3020603413054133
 21
17.5756941191564984
 31
0.0
  0
ARC
  5
A4
100
AcDbEntity
  8
0
 62
256
370
-1
 48
1.0
  6
BYLAYER
100
AcDbCircle
 10
7.3095141896640916
 20
17.69756346256165
 30
0.0
 40
1.0000000000000002
100
AcDbArc
 50
352.9999999999998295
 51
82.9999999999997016
  0
LINE
  5
A5
100
AcDbEntity
  8
0
 62
256
370
-1
 48
1.0
  6
BYLAYER
100
AcDbLine
 10
7.4313835330692442
 20
18.6901096142029708
 30
0.0
 11
-4.4791702866266299
 21
20.1525417350647551
 31
0.0
  0
ARC
  5
A6
100
AcDbEntity
  8
0
 62
256
370
-1
 48
1.0
  6
BYLAYER
100
AcDbCircle
 10
-4.6010396300317771
 20
19.1599955834234201
 30
0.0
 40
1.0000000000000127
100
AcDbArc
 50
83.0000000000000995
 51
172.9999999999998863
  0
LINE
  5
A7
100
AcDbEntity
  8
0
 62
256
370
-1
 48
1.0
  6
BYLAYER
100
AcDbLine
 10
-5.5935857816731112
 20
19.2818649268285718
 30
0.0
 11
-7.0560179025349115
 21
7.3713111071327191
 31
0.0
  0
ARC
  5
A8
100
AcDbEntity
  8
0
 62
256
370
-1
 48
1.0
  6
BYLAYER
100
AcDbCircle
 10
-6.0634717508935898
 20
7.2494417637275657
 30
0.0
 40
1.0000000000000004
100
AcDbArc
 50
172.9999999999997158
 51
263.0
  0
LINE
  5
A9
100
AcDbEntity
  8
0
 62
256
370
-1
 48
1.0
  6
BYLAYER
100
AcDbLine
 10
9.1612392123117097
 20
24.5731444882278218
 30
0.0
 11
10.623671333173478
 21
36.4836983079236887
 31
0.0
  0
ARC
  5
AA
100
AcDbEntity
  8
0
 62
256
370
-1
 48
1.0
  6
BYLAYER
100
AcDbCircle
 10
9.6311251815321341
 20
36.6055676513288333
 30
0.0
 40
1.0000000000000207
100
AcDbArc
 50
353.0000000000002842
 51
83.000000000000199
  0
LINE
  5
AB
100
AcDbEntity
  8
0
 62
256
370
-1
 48
1.0
  6
BYLAYER
100
AcDbLine
 10
9.7529945249372805
 20
37.5981138029701754
 30
0.0
 11
-2.1575592947585869
 21
39.0605459238319241
 31
0.0
  0
ARC
  5
AC
100
AcDbEntity
  8
0
 62
256
370
-1
 48
1.0
  6
BYLAYER
100
AcDbCircle
 10
-2.2794286381637319
 20
38.0679997721906176
 30
0.0
 40
0.9999999999999836
100
AcDbArc
 50
83.0000000000000284
 51
172.9999999999996589
  0
LINE
  5
AD
100
AcDbEntity
  8
0
 62
256
370
-1
 48
1.0
  6
BYLAYER
100
AcDbLine
 10
-3.2719747898050371
 20
38.1898691155957692
 30
0.0
 11
-4.7344069106668556
 21
26.2793152958999023
 31
0.0
  0
ARC
  5
AE
100
AcDbEntity
  8
0
 62
256
370
-1
 48
1.0
  6
BYLAYER
100
AcDbCircle
 10
-3.7418607590255344
 20
26.1574459524947507
 30
0.0
 40
0.9999999999999993
100
AcDbArc
 50
172.9999999999997726
 51
263.0
  0
LINE
  5
AF
100
AcDbEntity
  8
0
 62
256
370
-1
 48
1.0
  6
BYLAYER
100
AcDbLine
 10
-3.8637301024306812
 20
25.1648998008534299
 30
0.0
 11
8.0468237172652231
 21
23.7024676799916598
 31
0.0
  0
ARC
  5
B0
100
AcDbEntity
  8
0
 62
256
370
-1
 48
1.0
  6
BYLAYER
100
AcDbCircle
 10
8.1686930606703854
 20
24.6950138316329841
 30
0.0
 40
1.000000000000004
100
AcDbArc
 50
262.9999999999991473
 51
352.9999999999992042
  0
LINE
  5
B1
100
AcDbEntity
  8
0
 62
256
370
-1
 48
1.0
  6
BYLAYER
100
AcDbLine
 10
-8.5069520861668053
 20
-12.6511085766809455
 30
0.0
 11
3.4036017335291073
 21
-14.1135406975427227
 31
0.0
  0
ARC
  5
B2
100
AcDbEntity
  8
0
 62
256
370
-1
 48
1.0
  6
BYLAYER
100
AcDbCircle
 10
3.5254710769342612
 20
-13.1209945459014037
 30
0.0
 40
0.999999999999998
100
AcDbArc
 50
262.9999999999996021
 51
352.9999999999996589
  0
LINE
  5
B3
100
AcDbEntity
  8
0
 62
256
370
-1
 48
1.0
  6
BYLAYER
100
AcDbLine
 10
4.5180172285755802
 20
-13.2428638893065571
 30
0.0
 11
5.9804493494373432
 21
-1.3323100696106831
 31
0.0
  0
ARC
  5
B4
100
AcDbEntity
  8
0
 62
256
370
-1
 48
1.0
  6
BYLAYER
100
AcDbCircle
 10
4.9879031977960198
 20
-1.2104407262055323
 30
0.0
 40
1.000000000000002
100
AcDbArc
 50
352.9999999999998295
 51
82.99999999999973
  0
LINE
  5
B5
100
AcDbEntity
  8
0
 62
256
370
-1
 48
1.0
  6
BYLAYER
100
AcDbLine
 10
5.1097725412011723
 20
-0.2178945745642089
 30
0.0
 11
-6.8007812784946982
 21
1.2445375462975612
 31
0.0
  0
ARC
  5
B6
100
AcDbEntity
  8
0
 62
256
370
-1
 48
1.0
  6
BYLAYER
100
AcDbCircle
 10
-6.9226506218998392
 20
0.2519913946562367
 30
0.0
 40
1.0000000000000018
100
AcDbArc
 50
83.0000000000003837
 51
173.0000000000000284
  0
LINE
  5
B7
100
AcDbEntity
  8
0
 62
256
370
-1
 48
1.0
  6
BYLAYER
100
AcDbLine
 10
-7.9151967735411635
 20
0.373860738061385
 30
0.0
 11
-9.3776288944029638
 21
-11.5366930816344908
 31
0.0
  0
ARC
  5
B8
100
AcDbEntity
  8
0
 62
256
370
-1
 48
1.0
  6
BYLAYER
100
AcDbCircle
 10
-8.3850827427616572
 20
-11.6585624250396389
 30
0.0
 40
0.9999999999999841
100
AcDbArc
 50
172.9999999999998863
 51
262.9999999999998295
  0
LINE
  5
B9
100
AcDbEntity
  8
0
 62
256
370
-1
 48
1.0
  6
BYLAYER
100
AcDbLine
 10
-63.1500000000000341
 20
42.6000000000000085
 30
0.0
 11
-51.1500000000000199
 21
42.6000000000000085
 31
0.0
  0
ARC
  5
BA
100
AcDbEntity
  8
0
 62
256
370
-1
 48
1.0
  6
BYLAYER
100
AcDbCircle
 10
-51.1500000000000199
 20
43.6000000000000085
 30
0.0
 40
0.9999999999999966
100
AcDbArc
 50
270.0
 51
360.0
  0
LINE
  5
BB
100
AcDbEntity
  8
0
 62
256
370
-1
 48
1.0
  6
BYLAYER
100
AcDbLine
 10
-50.1500000000000199
 20
43.6000000000000014
 30
0.0
 11
-50.1500000000000128
 21
55.6000000000000085
 31
0.0
  0
ARC
  5
BC
100
AcDbEntity
  8
0
 62
256
370
-1
 48
1.0
  6
BYLAYER
100
AcDbCircle
 10
-51.1500000000000128
 20
55.6000000000000085
 30
0.0
 40
0.9999999999999966
100
AcDbArc
 50
0.0
 51
90.0
  0
LINE
  5
BD
100
AcDbEntity
  8
0
 62
256
370
-1
 48
1.0
  6
BYLAYER
100
AcDbLine
 10
-51.1500000000000128
 20
56.6000000000000014
 30
0.0
 11
-63.1500000000000199
 21
56.6000000000000014
 31
0.0
  0
ARC
  5
BE
100
AcDbEntity
  8
0
 62
256
370
-1
 48
1.0
  6
BYLAYER
100
AcDbCircle
 10
-63.1500000000000199
 20
55.6000000000000156
 30
0.0
 40
0.9999999999999895
100
AcDbArc
 50
90.0
 51
180.0
  0
LINE
  5
BF
100
AcDbEntity
  8
0
 62
256
370
-1
 48
1.0
  6
BYLAYER
100
AcDbLine
 10
-64.1500000000000057
 20
55.6000000000000085
 30
0.0
 11
-64.1500000000000341
 21
43.5999999999999943
 31
0.0
  0
ARC
  5
C0
100
AcDbEntity
  8
0
 62
256
370
-1
 48
1.0
  6
BYLAYER
100
AcDbCircle
 10
-63.1500000000000412
 20
43.6000000000000014
 30
0.0
 40
0.9999999999999929
100
AcDbArc
 50
180.0
 51
270.0000000000003979
  0
LINE
  5
C1
100
AcDbEntity
  8
0
 62
256
370
-1
 48
1.0
  6
BYLAYER
100
AcDbLine
 10
-63.1500000000000341
 20
23.5499999999999972
 30
0.0
 11
-51.1500000000000199
 21
23.5499999999999972
 31
0.0
  0
ARC
  5
C2
100
AcDbEntity
  8
0
 62
256
370
-1
 48
1.0
  6
BYLAYER
100
AcDbCircle
 10
-51.1500000000000199
 20
24.5500000000000007
 30
0.0
 40
1.0000000000000036
100
AcDbArc
 50
270.0
 51
360.0
  0
LINE
  5
C3
100
AcDbEntity
  8
0
 62
256
370
-1
 48
1.0
  6
BYLAYER
100
AcDbLine
 10
-50.1500000000000128
 20
24.5499999999999972
 30
0.0
 11
-50.1500000000000128
 21
36.5499999999999972
 31
0.0
  0
ARC
  5
C4
100
AcDbEntity
  8
0
 62
256
370
-1
 48
1.0
  6
BYLAYER
100
AcDbCircle
 10
-51.1500000000000128
 20
36.5499999999999972
 30
0.0
 40
0.9999999999999966
100
AcDbArc
 50
0.0
 51
90.0
  0
LINE
  5
C5
100
AcDbEntity
  8
0
 62
256
370
-1
 48
1.0
  6
BYLAYER
100
AcDbLine
 10
-51.1500000000000128
 20
37.5499999999999901
 30
0.0
 11
-63.1500000000000199
 21
37.5499999999999972
 31
0.0
  0
ARC
  5
C6
100
AcDbEntity
  8
0
 62
256
370
-1
 48
1.0
  6
BYLAYER
100
AcDbCircle
 10
-63.1500000000000199
 20
36.5499999999999972
 30
0.0
 40
1.0000000000000002
100
AcDbArc
 50
90.0
 51
180.0
  0
LINE
  5
C7
100
AcDbEntity
  8
0
 62
256
370
-1
 48
1.0
  6
BYLAYER
100
AcDbLine
 10
-64.1500000000000199
 20
36.5499999999999972
 30
0.0
 11
-64.1500000000000341
 21
24.5499999999999972
 31
0.0
  0
ARC
  5
C8
100
AcDbEntity
  8
0
 62
256
370
-1
 48
1.0
  6
BYLAYER
100
AcDbCircle
 10
-63.1500000000000341
 20
24.5499999999999972
 30
0.0
 40
1.0000000000000002
100
AcDbArc
 50
180.0
 51
270.0
  0
LINE
  5
C9
100
AcDbEntity
  8
0
 62
256
370
-1
 48
1.0
  6
BYLAYER
100
AcDbLine
 10
-31.1000000000000121
 20
31.0500000000000007
 30
0.0
 11
-31.1000000000000121
 21
43.0500000000000043
 31
0.0
  0
ARC
  5
CA
100
AcDbEntity
  8
0
 62
256
370
-1
 48
1.0
  6
BYLAYER
100
AcDbCircle
 10
-32.1000000000000085
 20
43.0500000000000043
 30
0.0
 40
0.9999999999999982
100
AcDbArc
 50
0.0
 51
90.0
  0
LINE
  5
CB
100
AcDbEntity
  8
0
 62
256
370
-1
 48
1.0
  6
BYLAYER
100
AcDbLine
 10
-32.1000000000000085
 20
44.0500000000000043
 30
0.0
 11
-44.1000000000000227
 21
44.0500000000000043
 31
0.0
  0
ARC
  5
CC
100
AcDbEntity
  8
0
 62
256
370
-1
 48
1.0
  6
BYLAYER
100
AcDbCircle
 10
-44.1000000000000227
 20
43.0500000000000043
 30
0.0
 40
0.9999999999999966
100
AcDbArc
 50
90.0
 51
180.0
  0
LINE
  5
CD
100
AcDbEntity
  8
0
 62
256
370
-1
 48
1.0
  6
BYLAYER
100
AcDbLine
 10
-45.1000000000000156
 20
43.0500000000000043
 30
0.0
 11
-45.1000000000000085
 21
31.0499999999999972
 31
0.0
  0
ARC
  5
CE
100
AcDbEntity
  8
0
 62
256
370
-1
 48
1.0
  6
BYLAYER
100
AcDbCircle
 10
-44.1000000000000085
 20
31.0499999999999972
 30
0.0
 40
1.0000000000000002
100
AcDbArc
 50
180.0
 51
270.0
  0
LINE
  5
CF
100
AcDbEntity
  8
0
 62
256
370
-1
 48
1.0
  6
BYLAYER
100
AcDbLine
 10
-44.1000000000000085
 20
30.0499999999999972
 30
0.0
 11
-32.1000000000000085
 21
30.0499999999999972
 31
0.0
  0
ARC
  5
D0
100
AcDbEntity
  8
0
 62
256
370
-1
 48
1.0
  6
BYLAYER
100
AcDbCircle
 10
-32.1000000000000085
 20
31.0499999999999972
 30
0.0
 40
1.0000000000000002
100
AcDbArc
 50
270.0
 51
0.0
  0
LINE
  5
D1
100
AcDbEntity
  8
0
 62
256
370
-1
 48
1.0
  6
BYLAYER
100
AcDbLine
 10
-83.2000000000000028
 20
34.0500000000000256
 30
0.0
 11
-83.2000000000000028
 21
22.0499999999999829
 31
0.0
  0
ARC
  5
D2
100
AcDbEntity
  8
0
 62
256
370
-1
 48
1.0
  6
BYLAYER
100
AcDbCircle
 10
-82.2000000000000028
 20
22.0499999999999829
 30
0.0
 40
0.9999999999999982
100
AcDbArc
 50
180.0
 51
270.0
  0
LINE
  5
D3
100
AcDbEntity
  8
0
 62
256
370
-1
 48
1.0
  6
BYLAYER
100
AcDbLine
 10
-82.2000000000000028
 20
21.0499999999999865
 30
0.0
 11
-70.1999999999999886
 21
21.0499999999999865
 31
0.0
  0
ARC
  5
D4
100
AcDbEntity
  8
0
 62
256
370
-1
 48
1.0
  6
BYLAYER
100
AcDbCircle
 10
-70.1999999999999886
 20
22.0499999999999794
 30
0.0
 40
0.9999999999999929
100
AcDbArc
 50
270.0
 51
0.0
  0
LINE
  5
D5
100
AcDbEntity
  8
0
 62
256
370
-1
 48
1.0
  6
BYLAYER
100
AcDbLine
 10
-69.2000000000000028
 20
22.0499999999999865
 30
0.0
 11
-69.2000000000000028
 21
34.0500000000000256
 31
0.0
  0
ARC
  5
D6
100
AcDbEntity
  8
0
 62
256
370
-1
 48
1.0
  6
BYLAYER
100
AcDbCircle
 10
-70.2000000000000028
 20
34.0500000000000256
 30
0.0
 40
1.0000000000000002
100
AcDbArc
 50
0.0
 51
90.0
  0
LINE
  5
D7
100
AcDbEntity
  8
0
 62
256
370
-1
 48
1.0
  6
BYLAYER
100
AcDbLine
 10
-70.2000000000000028
 20
35.0500000000000256
 30
0.0
 11
-82.2000000000000028
 21
35.0500000000000256
 31
0.0
  0
ARC
  5
D8
100
AcDbEntity
  8
0
 62
256
370
-1
 48
1.0
  6
BYLAYER
100
AcDbCircle
 10
-82.2000000000000028
 20
34.0500000000000256
 30
0.0
 40
1.0000000000000002
100
AcDbArc
 50
90.0
 51
180.0
  0
LINE
  5
D9
100
AcDbEntity
  8
0
 62
256
370
-1
 48
1.0
  6
BYLAYER
100
AcDbLine
 10
-25.0499999999999154
 20
24.0499999999999083
 30
0.0
 11
-13.0499999999999172
 21
24.0499999999999119
 31
0.0
  0
ARC
  5
DA
100
AcDbEntity
  8
0
 62
256
370
-1
 48
1.0
  6
BYLAYER
100
AcDbCircle
 10
-13.0499999999999172
 20
25.0499999999999119
 30
0.0
 40
1.0000000000000036
100
AcDbArc
 50
270.0
 51
0.0
  0
LINE
  5
DB
100
AcDbEntity
  8
0
 62
256
370
-1
 48
1.0
  6
BYLAYER
100
AcDbLine
 10
-12.0499999999999137
 20
25.0499999999999154
 30
0.0
 11
-12.0499999999999154
 21
37.0499999999999048
 31
0.0
  0
ARC
  5
DC
100
AcDbEntity
  8
0
 62
256
370
-1
 48
1.0
  6
BYLAYER
100
AcDbCircle
 10
-13.049999999999919
 20
37.0499999999999119
 30
0.0
 40
1.0000000000000047
100
AcDbArc
 50
360.0
 51
89.9999999999999005
  0
LINE
  5
DD
100
AcDbEntity
  8
0
 62
256
370
-1
 48
1.0
  6
BYLAYER
100
AcDbLine
 10
-13.0499999999999172
 20
38.0499999999999119
 30
0.0
 11
-25.0499999999999154
 21
38.0499999999999119
 31
0.0
  0
ARC
  5
DE
100
AcDbEntity
  8
0
 62
256
370
-1
 48
1.0
  6
BYLAYER
100
AcDbCircle
 10
-25.0499999999999119
 20
37.0499999999999119
 30
0.0
 40
1.0000000000000036
100
AcDbArc
 50
90.000000000000199
 51
180.0
  0
LINE
  5
DF
100
AcDbEntity
  8
0
 62
256
370
-1
 48
1.0
  6
BYLAYER
100
AcDbLine
 10
-26.0499999999999154
 20
37.0499999999999048
 30
0.0
 11
-26.0499999999999154
 21
25.0499999999999119
 31
0.0
  0
ARC
  5
E0
100
AcDbEntity
  8
0
 62
256
370
-1
 48
1.0
  6
BYLAYER
100
AcDbCircle
 10
-25.0499999999999119
 20
25.0499999999999119
 30
0.0
 40
1.0000000000000018
100
AcDbArc
 50
180.0
 51
269.9999999999997726
  0
LINE
  5
E1
100
AcDbEntity
  8
0
 62
256
370
-1
 48
1.0
  6
BYLAYER
100
AcDbLine
 10
-26.0499999999999154
 20
17.9999999999999076
 30
0.0
 11
-26.0499999999999154
 21
5.9999999999999094
 31
0.0
  0
ARC
  5
E2
100
AcDbEntity
  8
0
 62
256
370
-1
 48
1.0
  6
BYLAYER
100
AcDbCircle
 10
-25.0499999999999154
 20
5.9999999999999094
 30
0.0
 40
1.0000000000000002
100
AcDbArc
 50
180.0
 51
270.0
  0
LINE
  5
E3
100
AcDbEntity
  8
0
 62
256
370
-1
 48
1.0
  6
BYLAYER
100
AcDbLine
 10
-25.0499999999999154
 20
4.9999999999999094
 30
0.0
 11
-13.0499999999999172
 21
4.9999999999999121
 31
0.0
  0
ARC
  5
E4
100
AcDbEntity
  8
0
 62
256
370
-1
 48
1.0
  6
BYLAYER
100
AcDbCircle
 10
-13.0499999999999154
 20
5.9999999999999138
 30
0.0
 40
1.0000000000000018
100
AcDbArc
 50
269.9999999999998863
 51
360.0
  0
LINE
  5
E5
100
AcDbEntity
  8
0
 62
256
370
-1
 48
1.0
  6
BYLAYER
100
AcDbLine
 10
-12.0499999999999137
 20
5.9999999999999121
 30
0.0
 11
-12.0499999999999154
 21
17.9999999999999041
 31
0.0
  0
ARC
  5
E6
100
AcDbEntity
  8
0
 62
256
370
-1
 48
1.0
  6
BYLAYER
100
AcDbCircle
 10
-13.0499999999999154
 20
17.9999999999999076
 30
0.0
 40
1.0000000000000018
100
AcDbArc
 50
360.0
 51
90.0000000000000995
  0
LINE
  5
E7
100
AcDbEntity
  8
0
 62
256
370
-1
 48
1.0
  6
BYLAYER
100
AcDbLine
 10
-13.0499999999999172
 20
18.9999999999999076
 30
0.0
 11
-25.0499999999999154
 21
18.9999999999999076
 31
0.0
  0
ARC
  5
E8
100
AcDbEntity
  8
0
 62
256
370
-1
 48
1.0
  6
BYLAYER
100
AcDbCircle
 10
-25.0499999999999154
 20
17.9999999999999076
 30
0.0
 40
1.0000000000000002
100
AcDbArc
 50
90.0
 51
180.0
  0
LINE
  5
E9
100
AcDbEntity
  8
0
 62
256
370
-1
 48
1.0
  6
BYLAYER
100
AcDbLine
 10
-83.2000000000000028
 20
53.1000000000000298
 30
0.0
 11
-83.2000000000000028
 21
41.0999999999999872
 31
0.0
  0
ARC
  5
EA
100
AcDbEntity
  8
0
 62
256
370
-1
 48
1.0
  6
BYLAYER
100
AcDbCircle
 10
-82.2000000000000028
 20
41.0999999999999872
 30
0.0
 40
1.0000000000000002
100
AcDbArc
 50
180.0
 51
270.0
  0
LINE
  5
EB
100
AcDbEntity
  8
0
 62
256
370
-1
 48
1.0
  6
BYLAYER
100
AcDbLine
 10
-82.2000000000000028
 20
40.0999999999999872
 30
0.0
 11
-70.1999999999999886
 21
40.0999999999999872
 31
0.0
  0
ARC
  5
EC
100
AcDbEntity
  8
0
 62
256
370
-1
 48
1.0
  6
BYLAYER
100
AcDbCircle
 10
-70.1999999999999886
 20
41.0999999999999801
 30
0.0
 40
0.9999999999999929
100
AcDbArc
 50
270.0
 51
0.0
  0
LINE
  5
ED
100
AcDbEntity
  8
0
 62
256
370
-1
 48
1.0
  6
BYLAYER
100
AcDbLine
 10
-69.2000000000000028
 20
41.0999999999999872
 30
0.0
 11
-69.2000000000000028
 21
53.1000000000000298
 31
0.0
  0
ARC
  5
EE
100
AcDbEntity
  8
0
 62
256
370
-1
 48
1.0
  6
BYLAYER
100
AcDbCircle
 10
-70.2000000000000028
 20
53.1000000000000298
 30
0.0
 40
1.0000000000000002
100
AcDbArc
 50
0.0
 51
90.0
  0
LINE
  5
EF
100
AcDbEntity
  8
0
 62
256
370
-1
 48
1.0
  6
BYLAYER
100
AcDbLine
 10
-70.2000000000000028
 20
54.1000000000000298
 30
0.0
 11
-82.2000000000000028
 21
54.1000000000000298
 31
0.0
  0
ARC
  5
F0
100
AcDbEntity
  8
0
 62
256
370
-1
 48
1.0
  6
BYLAYER
100
AcDbCircle
 10
-82.2000000000000028
 20
53.1000000000000298
 30
0.0
 40
1.0000000000000002
100
AcDbArc
 50
90.0
 51
180.0
  0
LINE
  5
F1
100
AcDbEntity
  8
0
 62
256
370
-1
 48
1.0
  6
BYLAYER
100
AcDbLine
 10
-64.1500000000000199
 20
17.4999999999999964
 30
0.0
 11
-64.1500000000000341
 21
5.4999999999999947
 31
0.0
  0
ARC
  5
F2
100
AcDbEntity
  8
0
 62
256
370
-1
 48
1.0
  6
BYLAYER
100
AcDbCircle
 10
-63.1500000000000341
 20
5.4999999999999938
 30
0.0
 40
0.9999999999999999
100
AcDbArc
 50
180.0
 51
270.0
  0
LINE
  5
F3
100
AcDbEntity
  8
0
 62
256
370
-1
 48
1.0
  6
BYLAYER
100
AcDbLine
 10
-63.1500000000000341
 20
4.4999999999999938
 30
0.0
 11
-51.1500000000000199
 21
4.4999999999999938
 31
0.0
  0
ARC
  5
F4
100
AcDbEntity
  8
0
 62
256
370
-1
 48
1.0
  6
BYLAYER
100
AcDbCircle
 10
-51.1500000000000199
 20
5.4999999999999938
 30
0.0
 40
1.0000000000000002
100
AcDbArc
 50
270.0
 51
0.0
  0
LINE
  5
F5
100
AcDbEntity
  8
0
 62
256
370
-1
 48
1.0
  6
BYLAYER
100
AcDbLine
 10
-50.1500000000000199
 20
5.4999999999999938
 30
0.0
 11
-50.1500000000000128
 21
17.4999999999999964
 31
0.0
  0
ARC
  5
F6
100
AcDbEntity
  8
0
 62
256
370
-1
 48
1.0
  6
BYLAYER
100
AcDbCircle
 10
-51.1500000000000128
 20
17.4999999999999964
 30
0.0
 40
1.0000000000000002
100
AcDbArc
 50
0.0
 51
90.0
  0
LINE
  5
F7
100
AcDbEntity
  8
0
 62
256
370
-1
 48
1.0
  6
BYLAYER
100
AcDbLine
 10
-51.1500000000000128
 20
18.4999999999999964
 30
0.0
 11
-63.1500000000000199
 21
18.4999999999999964
 31
0.0
  0
ARC
  5
F8
100
AcDbEntity
  8
0
 62
256
370
-1
 48
1.0
  6
BYLAYER
100
AcDbCircle
 10
-63.1500000000000199
 20
17.4999999999999964
 30
0.0
 40
1.0000000000000002
100
AcDbArc
 50
90.0
 51
180.0
  0
LINE
  5
F9
100
AcDbEntity
  8
0
 62
256
370
-1
 48
1.0
  6
BYLAYER
100
AcDbLine
 10
-86.4749999999999091
 20
14.8312586268235158
 30
0.0
 11
-86.4749999999999091
 21
-7.8163507371500316
 31
0.0
  0
LINE
  5
FA
100
AcDbEntity
  8
0
 62
256
370
-1
 48
1.0
  6
BYLAYER
100
AcDbLine
 10
-16.8108913328809102
 20
-22.3265254889758076
 30
0.0
 11
12.8986713331734748
 21
-22.326525488975804
 31
0.0
  0
LINE
  5
FB
100
AcDbEntity
  8
0
 62
256
370
-1
 48
1.0
  6
BYLAYER
100
AcDbLine
 10
-104.0591040752156857
 20
-20.8290783365115111
 30
0.0
 11
-91.6065430993423178
 21
-37.9685581272684658
 31
0.0
  0
LINE
  5
FC
100
AcDbEntity
  8
0
 62
256
370
-1
 48
1.0
  6
BYLAYER
100
AcDbLine
 10
13.8986713331735174
 20
55.3726904254076828
 30
0.0
 11
13.8986713331734748
 21
-21.326525488975804
 31
0.0
  0
ARC
  5
FD
100
AcDbEntity
  8
0
 62
256
370
-1
 48
1.0
  6
BYLAYER
100
AcDbCircle
 10
-90.7975261049673747
 20
-37.3807728749760031
 30
0.0
 40
1.0
100
AcDbArc
 50
215.9999999999996589
 51
308.9129084432698278
  0
ARC
  5
FE
100
AcDbEntity
  8
0
 62
256
370
-1
 48
1.0
  6
BYLAYER
100
AcDbCircle
 10
-103.2500870808407427
 20
-20.2412930842190448
 30
0.0
 40
1.0
100
AcDbArc
 50
129.184984751103741
 51
216.0
  0
ARC
  5
FF
100
AcDbEntity
  8
0
 62
256
370
-1
 48
1.0
  6
BYLAYER
100
AcDbCircle
 10
12.8986713331735174
 20
55.3726904254076828
 30
0.0
 40
1.0
100
AcDbArc
 50
0.0
 51
68.0766824402996207
  0
ARC
  5
100
100
AcDbEntity
  8
0
 62
256
370
-1
 48
1.0
  6
BYLAYER
100
AcDbCircle
 10
12.8986713331734748
 20
-21.3265254889758076
 30
0.0
 40
1.0
100
AcDbArc
 50
270.0
 51
0.0
  0
ENDSEC
  0
SECTION
  2
OBJECTS
  0
DICTIONARY
  5
C
100
AcDbDictionary
280
0
281
1
  3
ACAD_GROUP
350
D
  3
ACAD_LAYOUT
350
1A
  3
ACAD_MLINESTYLE
350
17
  3
ACAD_PLOTSETTINGS
350
19
  3
ACAD_PLOTSTYLENAME
350
E
  3
AcDbVariableDictionary
350
101
  3
QCAD_OBJECTS
350
102
  0
DICTIONARY
  5
D
100
AcDbDictionary
280
0
281
1
  0
ACDBDICTIONARYWDFLT
  5
E
100
AcDbDictionary
281
1
  3
Normal
350
F
100
AcDbDictionaryWithDefault
340
F
  0
ACDBPLACEHOLDER
  5
F
  0
DICTIONARY
  5
17
100
AcDbDictionary
280
0
281
1
  3
Standard
350
18
  0
MLINESTYLE
  5
18
100
AcDbMlineStyle
  2
STANDARD
 70
0
  3

 62
256
 51
90.0
 52
90.0
 71
2
 49
0.5
 62
256
  6
BYLAYER
 49
-0.5
 62
256
  6
BYLAYER
  0
DICTIONARY
  5
19
100
AcDbDictionary
280
0
281
1
  0
DICTIONARY
  5
1A
100
AcDbDictionary
281
1
  3
Layout1
350
1E
  3
Layout2
350
26
  3
Model
350
22
  0
LAYOUT
  5
1E
100
AcDbPlotSettings
  1

  2
none_device
  4

  6

 40
0.0
 41
0.0
 42
0.0
 43
0.0
 44
0.0
 45
0.0
 46
0.0
 47
0.0
 48
0.0
 49
0.0
140
0.0
141
0.0
142
1.0
143
1.0
 70
688
 72
0
 73
0
 74
5
  7

 75
16
147
1.0
148
0.0
149
0.0
100
AcDbLayout
  1
Layout1
 70
1
 71
1
 10
0.0
 20
0.0
 11
420.0
 21
297.0
 12
0.0
 22
0.0
 32
0.0
 14
100000000000000000000.0
 24
100000000000000000000.0
 34
100000000000000000000.0
 15
-100000000000000000000.0
 25
-100000000000000000000.0
 35
-100000000000000000000.0
146
0.0
 13
0.0
 23
0.0
 33
0.0
 16
1.0
 26
0.0
 36
0.0
 17
0.0
 27
1.0
 37
0.0
 76
0
330
1B
  0
LAYOUT
  5
22
100
AcDbPlotSettings
  1

  2
none_device
  4

  6

 40
0.0
 41
0.0
 42
0.0
 43
0.0
 44
0.0
 45
0.0
 46
0.0
 47
0.0
 48
0.0
 49
0.0
140
0.0
141
0.0
142
1.0
143
1.0
 70
1712
 72
0
 73
0
 74
0
  7

 75
0
147
1.0
148
0.0
149
0.0
100
AcDbLayout
  1
Model
 70
1
 71
0
 10
0.0
 20
0.0
 11
12.0
 21
9.0
 12
0.0
 22
0.0
 32
0.0
 14
0.0
 24
0.0
 34
0.0
 15
0.0
 25
0.0
 35
0.0
146
0.0
 13
0.0
 23
0.0
 33
0.0
 16
1.0
 26
0.0
 36
0.0
 17
0.0
 27
1.0
 37
0.0
 76
0
330
1F
  0
LAYOUT
  5
26
100
AcDbPlotSettings
  1

  2
none_device
  4

  6

 40
0.0
 41
0.0
 42
0.0
 43
0.0
 44
0.0
 45
0.0
 46
0.0
 47
0.0
 48
0.0
 49
0.0
140
0.0
141
0.0
142
1.0
143
1.0
 70
688
 72
0
 73
0
 74
5
  7

 75
16
147
1.0
148
0.0
149
0.0
100
AcDbLayout
  1
Layout2
 70
1
 71
2
 10
0.0
 20
0.0
 11
12.0
 21
9.0
 12
0.0
 22
0.0
 32
0.0
 14
0.0
 24
0.0
 34
0.0
 15
0.0
 25
0.0
 35
0.0
146
0.0
 13
0.0
 23
0.0
 33
0.0
 16
1.0
 26
0.0
 36
0.0
 17
0.0
 27
1.0
 37
0.0
 76
0
330
23
  0
DICTIONARY
  5
101
100
AcDbDictionary
281
1
  3
DIMASSOC
350
104
  3
HIDETEXT
350
103
  0
DICTIONARYVAR
  5
103
100
DictionaryVariables
280
0
  1
2
  0
DICTIONARYVAR
  5
104
100
DictionaryVariables
280
0
  1
1
  0
DICTIONARY
  5
102
100
AcDbDictionary
281
1
  3
ColorSettings/BackgroundColor
350
105
  3
ColorSettings/ColorMode
350
106
  3
Grid/DisplayGrid00
350
107
  3
Grid/DisplayGrid01
350
108
  3
Grid/DisplayGrid02
350
109
  3
Grid/DisplayGrid03
350
10A
  3
Grid/GridSpacingX00
350
10B
  3
Grid/GridSpacingX01
350
10C
  3
Grid/GridSpacingX02
350
10D
  3
Grid/GridSpacingX03
350
10E
  3
Grid/GridSpacingY00
350
10F
  3
Grid/GridSpacingY01
350
110
  3
Grid/GridSpacingY02
350
111
  3
Grid/GridSpacingY03
350
112
  3
Grid/IsometricGrid00
350
113
  3
Grid/IsometricGrid01
350
114
  3
Grid/IsometricGrid02
350
115
  3
Grid/IsometricGrid03
350
116
  3
Grid/IsometricProjection00
350
117
  3
Grid/IsometricProjection01
350
118
  3
Grid/IsometricProjection02
350
119
  3
Grid/IsometricProjection03
350
11A
  3
Grid/MetaGridSpacingX00
350
11B
  3
Grid/MetaGridSpacingX01
350
11C
  3
Grid/MetaGridSpacingX02
350
11D
  3
Grid/MetaGridSpacingX03
350
11E
  3
Grid/MetaGridSpacingY00
350
11F
  3
Grid/MetaGridSpacingY01
350
120
  3
Grid/MetaGridSpacingY02
350
121
  3
Grid/MetaGridSpacingY03
350
122
  3
MultiPageSettings/Columns
350
123
  3
MultiPageSettings/GlueMarginsBottom
350
124
  3
MultiPageSettings/GlueMarginsLeft
350
125
  3
MultiPageSettings/GlueMarginsRight
350
126
  3
MultiPageSettings/GlueMarginsTop
350
127
  3
MultiPageSettings/PrintCropMarks
350
128
  3
MultiPageSettings/Rows
350
129
  3
PageSettings/OffsetX
350
12A
  3
PageSettings/OffsetY
350
12B
  3
PageSettings/PageOrientation
350
12C
  3
PageSettings/PaperHeight
350
12D
  3
PageSettings/PaperSizeName
350
12E
  3
PageSettings/PaperWidth
350
12F
  3
PageSettings/PointSize
350
130
  3
PageSettings/Scale
350
131
  3
PageSettings/ShowPaperBorders
350
132
  3
PageTagSettings/EnablePageTags
350
133
  3
PageTagSettings/TagAlignment
350
134
  3
PageTagSettings/TagFont
350
135
  3
PageTagSettings/TagPosition
350
136
  3
QCADVersion
350
137
  3
UnitSettings/Measurement
350
138
  3
UnitSettings/PaperUnit
350
139
  3
ViewportCenter
350
13A
  3
ViewportHeight
350
13B
  3
ViewportWidth
350
13C
  0
XRECORD
  5
105
330
102
100
AcDbXrecord
280
1
1000
White
  0
XRECORD
  5
106
330
102
100
AcDbXrecord
280
1
1000
BlackWhite
  0
XRECORD
  5
107
330
102
100
AcDbXrecord
280
1
290
1
  0
XRECORD
  5
108
330
102
100
AcDbXrecord
280
1
290
1
  0
XRECORD
  5
109
330
102
100
AcDbXrecord
280
1
290
1
  0
XRECORD
  5
10A
330
102
100
AcDbXrecord
280
1
290
1
  0
XRECORD
  5
10B
330
102
100
AcDbXrecord
280
1
1000
auto
  0
XRECORD
  5
10C
330
102
100
AcDbXrecord
280
1
1000
auto
  0
XRECORD
  5
10D
330
102
100
AcDbXrecord
280
1
1000
auto
  0
XRECORD
  5
10E
330
102
100
AcDbXrecord
280
1
1000
auto
  0
XRECORD
  5
10F
330
102
100
AcDbXrecord
280
1
1000
auto
  0
XRECORD
  5
110
330
102
100
AcDbXrecord
280
1
1000
auto
  0
XRECORD
  5
111
330
102
100
AcDbXrecord
280
1
1000
auto
  0
XRECORD
  5
112
330
102
100
AcDbXrecord
280
1
1000
auto
  0
XRECORD
  5
113
330
102
100
AcDbXrecord
280
1
290
0
  0
XRECORD
  5
114
330
102
100
AcDbXrecord
280
1
290
0
  0
XRECORD
  5
115
330
102
100
AcDbXrecord
280
1
290
0
  0
XRECORD
  5
116
330
102
100
AcDbXrecord
280
1
290
0
  0
XRECORD
  5
117
330
102
100
AcDbXrecord
280
1
 90
65537
  0
XRECORD
  5
118
330
102
100
AcDbXrecord
280
1
 90
65537
  0
XRECORD
  5
119
330
102
100
AcDbXrecord
280
1
 90
65537
  0
XRECORD
  5
11A
330
102
100
AcDbXrecord
280
1
 90
65537
  0
XRECORD
  5
11B
330
102
100
AcDbXrecord
280
1
1000
auto
  0
XRECORD
  5
11C
330
102
100
AcDbXrecord
280
1
1000
auto
  0
XRECORD
  5
11D
330
102
100
AcDbXrecord
280
1
1000
auto
  0
XRECORD
  5
11E
330
102
100
AcDbXrecord
280
1
1000
auto
  0
XRECORD
  5
11F
330
102
100
AcDbXrecord
280
1
1000
auto
  0
XRECORD
  5
120
330
102
100
AcDbXrecord
280
1
1000
auto
  0
XRECORD
  5
121
330
102
100
AcDbXrecord
280
1
1000
auto
  0
XRECORD
  5
122
330
102
100
AcDbXrecord
280
1
1000
auto
  0
XRECORD
  5
123
330
102
100
AcDbXrecord
280
1
 90
1
  0
XRECORD
  5
124
330
102
100
AcDbXrecord
280
1
 40
0.5
  0
XRECORD
  5
125
330
102
100
AcDbXrecord
280
1
 40
0.5
  0
XRECORD
  5
126
330
102
100
AcDbXrecord
280
1
 40
0.5
  0
XRECORD
  5
127
330
102
100
AcDbXrecord
280
1
 40
0.5
  0
XRECORD
  5
128
330
102
100
AcDbXrecord
280
1
290
0
  0
XRECORD
  5
129
330
102
100
AcDbXrecord
280
1
 90
1
  0
XRECORD
  5
12A
330
102
100
AcDbXrecord
280
1
1000
-122.969
  0
XRECORD
  5
12B
330
102
100
AcDbXrecord
280
1
1000
-45.4727
  0
XRECORD
  5
12C
330
102
100
AcDbXrecord
280
1
1000
Landscape
  0
XRECORD
  5
12D
330
102
100
AcDbXrecord
280
1
1000
279.4
  0
XRECORD
  5
12E
330
102
100
AcDbXrecord
280
1
1000
Custom
  0
XRECORD
  5
12F
330
102
100
AcDbXrecord
280
1
1000
215.9
  0
XRECORD
  5
130
330
102
100
AcDbXrecord
280
1
1000
0.05
  0
XRECORD
  5
131
330
102
100
AcDbXrecord
280
1
1000
1:1
  0
XRECORD
  5
132
330
102
100
AcDbXrecord
280
1
290
1
  0
XRECORD
  5
133
330
102
100
AcDbXrecord
280
1
290
0
  0
XRECORD
  5
134
330
102
100
AcDbXrecord
280
1
1000
Inside
  0
XRECORD
  5
135
330
102
100
AcDbXrecord
280
1
1000
Arial,10,-1,5,50,0,0,0,0,0
  0
XRECORD
  5
136
330
102
100
AcDbXrecord
280
1
1000
TopLeft
  0
XRECORD
  5
137
330
102
100
AcDbXrecord
280
1
1000
3.25.2
  0
XRECORD
  5
138
330
102
100
AcDbXrecord
280
1
 90
1
  0
XRECORD
  5
139
330
102
100
AcDbXrecord
280
1
 90
4
  0
XRECORD
  5
13B
330
102
100
AcDbXrecord
280
1
 40
153.7307715665946262
  0
XRECORD
  5
13C
330
102
100
AcDbXrecord
280
1
 40
284.0390436026565908
  0
ENDSEC
  0
EOF
